# xmcd CD database file
#
# Track frame offsets:
#	150
#	16082
#	45318
#	70733
#	86623
#	118661
#	132535
#
# Disc length: 2331 seconds
#
# Revision: 1
# Processed by: cddbd v1.5.2PL0 Copyright (c) Steve Scherf et al.
# Submitted via: CDex 1.51
#
DISCID=53091907
DTITLE=Francoise Pujol - Francoise Pujol 2010
DYEAR=2010
DGENRE=Jazz
TTITLE0=Pas encore (not yet)
TTITLE1=San Gimignano (italian village)
TTITLE2=Limousine Boddhi (spirit wake up in limuzine)
TTITLE3=Fui eum seu eu (so I wasm so I am)
TTITLE4=Elephant de mer (sea elephant)
TTITLE5=Long way to heaven
TTITLE6=Violence et diamant - peut etre
EXTD=YEAR: 2010
EXTT0=
EXTT1=
EXTT2=
EXTT3=
EXTT4=
EXTT5=
EXTT6=
PLAYORDER=
